<svg width="281" height="281" viewBox="0 0 281 281" fill="none" xmlns="http://www.w3.org/2000/svg">
<rect width="280" height="280" transform="translate(0.485352 0.767578)" fill="white"/>
<circle cx="139.368" cy="112.371" r="18.9188" stroke="#40B39F" stroke-width="5" stroke-linecap="round"/>
<circle cx="169.214" cy="148.18" r="18.9188" stroke="#40B39F" stroke-width="5" stroke-linecap="round"/>
<line x1="168.906" y1="148.663" x2="168.906" y2="183.871" stroke="#40B39F" stroke-width="4" stroke-linecap="round"/>
<line x1="162.953" y1="153.438" x2="166.905" y2="157.389" stroke="#40B39F" stroke-width="4" stroke-linecap="round"/>
<line x1="168.906" y1="148.663" x2="168.906" y2="183.871" stroke="#40B39F" stroke-width="4" stroke-linecap="round"/>
<line x1="133.125" y1="117.856" x2="137.077" y2="121.808" stroke="#40B39F" stroke-width="4" stroke-linecap="round"/>
<line x1="139.076" y1="112.825" x2="139.076" y2="147.327" stroke="#40B39F" stroke-width="4" stroke-linecap="round"/>
<circle cx="110.206" cy="148.18" r="18.9188" stroke="#40B39F" stroke-width="5" stroke-linecap="round"/>
<path d="M109.504 149.327L109.504 183.871" stroke="#40B39F" stroke-width="4" stroke-linecap="round"/>
<circle cx="61.9254" cy="103.642" r="13.2145" stroke="black" stroke-width="4" stroke-linecap="round"/>
<circle cx="15.2145" cy="15.2145" r="13.2145" transform="matrix(-1 0 0 1 233.26 88.4277)" stroke="black" stroke-width="4" stroke-linecap="round"/>
<circle cx="15.2145" cy="15.2145" r="13.2145" transform="matrix(-1 0 0 1 245.949 131.448)" stroke="black" stroke-width="4" stroke-linecap="round"/>
<circle cx="61.9254" cy="103.642" r="13.2145" stroke="black" stroke-width="4" stroke-linecap="round"/>
<circle cx="50.2359" cy="146.663" r="13.2145" stroke="black" stroke-width="4" stroke-linecap="round"/>
<line x1="50.0938" y1="144.344" x2="50.0938" y2="171.934" stroke="black" stroke-width="3" stroke-linecap="round"/>
<line x1="47.0159" y1="149.698" x2="48.5269" y2="151.209" stroke="black" stroke-width="3" stroke-linecap="round"/>
<line x1="50.0938" y1="144.344" x2="50.0938" y2="171.934" stroke="black" stroke-width="3" stroke-linecap="round"/>
<line x1="47.0159" y1="149.698" x2="48.5269" y2="151.209" stroke="black" stroke-width="3" stroke-linecap="round"/>
<line x1="50.0938" y1="144.344" x2="50.0938" y2="171.934" stroke="black" stroke-width="3" stroke-linecap="round"/>
<line x1="47.0159" y1="149.698" x2="48.5269" y2="151.209" stroke="black" stroke-width="3" stroke-linecap="round"/>
<line x1="47.0159" y1="149.698" x2="48.5269" y2="151.209" stroke="black" stroke-width="3" stroke-linecap="round"/>
<line x1="61.7773" y1="102.414" x2="61.7773" y2="130.005" stroke="black" stroke-width="3" stroke-linecap="round"/>
<line x1="58.6994" y1="107.769" x2="60.2104" y2="109.28" stroke="black" stroke-width="3" stroke-linecap="round"/>
<line x1="61.7773" y1="102.414" x2="61.7773" y2="130.005" stroke="black" stroke-width="3" stroke-linecap="round"/>
<line x1="58.6994" y1="107.769" x2="60.2104" y2="109.28" stroke="black" stroke-width="3" stroke-linecap="round"/>
<line x1="58.6994" y1="107.769" x2="60.2104" y2="109.28" stroke="black" stroke-width="3" stroke-linecap="round"/>
<line x1="58.6994" y1="107.769" x2="60.2104" y2="109.28" stroke="black" stroke-width="3" stroke-linecap="round"/>
<line x1="230.863" y1="146.082" x2="230.863" y2="173.673" stroke="black" stroke-width="3" stroke-linecap="round"/>
<line x1="228.436" y1="150.827" x2="229.947" y2="152.338" stroke="black" stroke-width="3" stroke-linecap="round"/>
<line x1="218.516" y1="103.327" x2="218.516" y2="130.918" stroke="black" stroke-width="3" stroke-linecap="round"/>
<line x1="215.436" y1="108.682" x2="216.947" y2="110.193" stroke="black" stroke-width="3" stroke-linecap="round"/>
<circle cx="139.37" cy="140.768" r="62.6163" transform="rotate(-45 139.37 140.768)" stroke="black" stroke-width="8" stroke-linecap="round"/>
<path d="M185.854 188.49L228.652 231.289" stroke="black" stroke-width="8" stroke-linecap="round"/>
<path d="M104.682 154.449L108.561 157.949" stroke="#40B39F" stroke-width="4" stroke-linecap="round"/>
</svg>
