<svg width="281" height="281" viewBox="0 0 281 281" fill="none" xmlns="http://www.w3.org/2000/svg">
<rect width="280" height="280" transform="translate(0.485352 0.767578)" fill="white"/>
<circle cx="102.123" cy="107.675" r="13.2145" stroke="black" stroke-width="4" stroke-linecap="round"/>
<circle cx="102.123" cy="107.675" r="13.2145" stroke="black" stroke-width="4" stroke-linecap="round"/>
<line x1="101.976" y1="106.447" x2="101.976" y2="134.038" stroke="black" stroke-width="3" stroke-linecap="round"/>
<line x1="98.8967" y1="111.803" x2="100.408" y2="113.314" stroke="black" stroke-width="3" stroke-linecap="round"/>
<line x1="101.976" y1="106.447" x2="101.976" y2="134.038" stroke="black" stroke-width="3" stroke-linecap="round"/>
<line x1="98.8967" y1="111.803" x2="100.408" y2="113.314" stroke="black" stroke-width="3" stroke-linecap="round"/>
<line x1="98.8967" y1="111.803" x2="100.408" y2="113.314" stroke="black" stroke-width="3" stroke-linecap="round"/>
<line x1="98.8967" y1="111.803" x2="100.408" y2="113.314" stroke="black" stroke-width="3" stroke-linecap="round"/>
<circle cx="102.123" cy="53.5758" r="13.2145" stroke="#3C4BAB" stroke-width="4" stroke-linecap="round"/>
<circle cx="102.123" cy="53.5758" r="13.2145" stroke="#3C4BAB" stroke-width="4" stroke-linecap="round"/>
<line x1="101.976" y1="52.3477" x2="101.976" y2="79.9383" stroke="#3C4BAB" stroke-width="3" stroke-linecap="round"/>
<line x1="98.8967" y1="57.7031" x2="100.408" y2="59.2141" stroke="#3C4BAB" stroke-width="3" stroke-linecap="round"/>
<line x1="101.976" y1="52.3477" x2="101.976" y2="79.9383" stroke="#3C4BAB" stroke-width="3" stroke-linecap="round"/>
<line x1="98.8967" y1="57.7031" x2="100.408" y2="59.2141" stroke="#3C4BAB" stroke-width="3" stroke-linecap="round"/>
<line x1="98.8967" y1="57.7031" x2="100.408" y2="59.2141" stroke="#3C4BAB" stroke-width="3" stroke-linecap="round"/>
<line x1="98.8967" y1="57.7031" x2="100.408" y2="59.2141" stroke="#3C4BAB" stroke-width="3" stroke-linecap="round"/>
<circle cx="141.746" cy="53.5758" r="13.2145" stroke="#3C4BAB" stroke-width="4" stroke-linecap="round"/>
<circle cx="141.746" cy="53.5758" r="13.2145" stroke="#3C4BAB" stroke-width="4" stroke-linecap="round"/>
<line x1="141.599" y1="52.3477" x2="141.599" y2="79.9383" stroke="#3C4BAB" stroke-width="3" stroke-linecap="round"/>
<line x1="138.52" y1="57.7031" x2="140.031" y2="59.2141" stroke="#3C4BAB" stroke-width="3" stroke-linecap="round"/>
<line x1="141.599" y1="52.3477" x2="141.599" y2="79.9383" stroke="#3C4BAB" stroke-width="3" stroke-linecap="round"/>
<line x1="138.52" y1="57.7031" x2="140.031" y2="59.2141" stroke="#3C4BAB" stroke-width="3" stroke-linecap="round"/>
<line x1="138.52" y1="57.7031" x2="140.031" y2="59.2141" stroke="#3C4BAB" stroke-width="3" stroke-linecap="round"/>
<line x1="138.52" y1="57.7031" x2="140.031" y2="59.2141" stroke="#3C4BAB" stroke-width="3" stroke-linecap="round"/>
<circle cx="141.746" cy="107.675" r="13.2145" stroke="#3C4BAB" stroke-width="4" stroke-linecap="round"/>
<circle cx="141.746" cy="107.675" r="13.2145" stroke="#3C4BAB" stroke-width="4" stroke-linecap="round"/>
<line x1="141.599" y1="106.447" x2="141.599" y2="134.038" stroke="#3C4BAB" stroke-width="3" stroke-linecap="round"/>
<line x1="138.52" y1="111.803" x2="140.031" y2="113.314" stroke="#3C4BAB" stroke-width="3" stroke-linecap="round"/>
<line x1="141.599" y1="106.447" x2="141.599" y2="134.038" stroke="#3C4BAB" stroke-width="3" stroke-linecap="round"/>
<line x1="138.52" y1="111.803" x2="140.031" y2="113.314" stroke="#3C4BAB" stroke-width="3" stroke-linecap="round"/>
<line x1="138.52" y1="111.803" x2="140.031" y2="113.314" stroke="#3C4BAB" stroke-width="3" stroke-linecap="round"/>
<line x1="138.52" y1="111.803" x2="140.031" y2="113.314" stroke="#3C4BAB" stroke-width="3" stroke-linecap="round"/>
<circle cx="181.371" cy="107.675" r="13.2145" stroke="#3C4BAB" stroke-width="4" stroke-linecap="round"/>
<circle cx="181.371" cy="107.675" r="13.2145" stroke="#3C4BAB" stroke-width="4" stroke-linecap="round"/>
<line x1="181.224" y1="106.447" x2="181.224" y2="134.038" stroke="#3C4BAB" stroke-width="3" stroke-linecap="round"/>
<line x1="178.145" y1="111.803" x2="179.656" y2="113.314" stroke="#3C4BAB" stroke-width="3" stroke-linecap="round"/>
<line x1="181.224" y1="106.447" x2="181.224" y2="134.038" stroke="#3C4BAB" stroke-width="3" stroke-linecap="round"/>
<line x1="178.145" y1="111.803" x2="179.656" y2="113.314" stroke="#3C4BAB" stroke-width="3" stroke-linecap="round"/>
<line x1="178.145" y1="111.803" x2="179.656" y2="113.314" stroke="#3C4BAB" stroke-width="3" stroke-linecap="round"/>
<line x1="178.145" y1="111.803" x2="179.656" y2="113.314" stroke="#3C4BAB" stroke-width="3" stroke-linecap="round"/>
<circle cx="181.371" cy="55.0123" r="13.2145" stroke="#3C4BAB" stroke-width="4" stroke-linecap="round"/>
<circle cx="181.371" cy="55.0123" r="13.2145" stroke="#3C4BAB" stroke-width="4" stroke-linecap="round"/>
<line x1="181.224" y1="53.7842" x2="181.224" y2="81.3748" stroke="#3C4BAB" stroke-width="3" stroke-linecap="round"/>
<line x1="178.145" y1="59.1396" x2="179.656" y2="60.6507" stroke="#3C4BAB" stroke-width="3" stroke-linecap="round"/>
<line x1="181.224" y1="53.7842" x2="181.224" y2="81.3748" stroke="#3C4BAB" stroke-width="3" stroke-linecap="round"/>
<line x1="178.145" y1="59.1396" x2="179.656" y2="60.6507" stroke="#3C4BAB" stroke-width="3" stroke-linecap="round"/>
<line x1="178.145" y1="59.1396" x2="179.656" y2="60.6507" stroke="#3C4BAB" stroke-width="3" stroke-linecap="round"/>
<line x1="178.145" y1="59.1396" x2="179.656" y2="60.6507" stroke="#3C4BAB" stroke-width="3" stroke-linecap="round"/>
<circle cx="181.371" cy="161.832" r="13.2145" stroke="#3C4BAB" stroke-width="4" stroke-linecap="round"/>
<circle cx="181.371" cy="161.832" r="13.2145" stroke="#3C4BAB" stroke-width="4" stroke-linecap="round"/>
<line x1="181.224" y1="160.604" x2="181.224" y2="188.194" stroke="#3C4BAB" stroke-width="3" stroke-linecap="round"/>
<line x1="178.145" y1="165.959" x2="179.656" y2="167.47" stroke="#3C4BAB" stroke-width="3" stroke-linecap="round"/>
<line x1="181.224" y1="160.604" x2="181.224" y2="188.194" stroke="#3C4BAB" stroke-width="3" stroke-linecap="round"/>
<line x1="178.145" y1="165.959" x2="179.656" y2="167.47" stroke="#3C4BAB" stroke-width="3" stroke-linecap="round"/>
<line x1="178.145" y1="165.959" x2="179.656" y2="167.47" stroke="#3C4BAB" stroke-width="3" stroke-linecap="round"/>
<line x1="178.145" y1="165.959" x2="179.656" y2="167.47" stroke="#3C4BAB" stroke-width="3" stroke-linecap="round"/>
<circle cx="141.746" cy="161.775" r="13.2145" stroke="black" stroke-width="4" stroke-linecap="round"/>
<circle cx="141.746" cy="161.775" r="13.2145" stroke="black" stroke-width="4" stroke-linecap="round"/>
<line x1="141.599" y1="160.547" x2="141.599" y2="188.137" stroke="black" stroke-width="3" stroke-linecap="round"/>
<line x1="138.52" y1="165.902" x2="140.031" y2="167.413" stroke="black" stroke-width="3" stroke-linecap="round"/>
<line x1="141.599" y1="160.547" x2="141.599" y2="188.137" stroke="black" stroke-width="3" stroke-linecap="round"/>
<line x1="138.52" y1="165.902" x2="140.031" y2="167.413" stroke="black" stroke-width="3" stroke-linecap="round"/>
<line x1="138.52" y1="165.902" x2="140.031" y2="167.413" stroke="black" stroke-width="3" stroke-linecap="round"/>
<line x1="138.52" y1="165.902" x2="140.031" y2="167.413" stroke="black" stroke-width="3" stroke-linecap="round"/>
<circle cx="62.4977" cy="106.239" r="13.2145" stroke="black" stroke-width="4" stroke-linecap="round"/>
<circle cx="62.4977" cy="106.239" r="13.2145" stroke="black" stroke-width="4" stroke-linecap="round"/>
<line x1="62.3506" y1="105.011" x2="62.3506" y2="132.601" stroke="black" stroke-width="3" stroke-linecap="round"/>
<line x1="59.2717" y1="110.366" x2="60.7827" y2="111.877" stroke="black" stroke-width="3" stroke-linecap="round"/>
<line x1="62.3506" y1="105.011" x2="62.3506" y2="132.601" stroke="black" stroke-width="3" stroke-linecap="round"/>
<line x1="59.2717" y1="110.366" x2="60.7827" y2="111.877" stroke="black" stroke-width="3" stroke-linecap="round"/>
<line x1="59.2717" y1="110.366" x2="60.7827" y2="111.877" stroke="black" stroke-width="3" stroke-linecap="round"/>
<line x1="59.2717" y1="110.366" x2="60.7827" y2="111.877" stroke="black" stroke-width="3" stroke-linecap="round"/>
<circle cx="102.123" cy="162.212" r="13.2145" stroke="black" stroke-width="4" stroke-linecap="round"/>
<circle cx="102.123" cy="162.212" r="13.2145" stroke="black" stroke-width="4" stroke-linecap="round"/>
<line x1="101.976" y1="160.983" x2="101.976" y2="188.574" stroke="black" stroke-width="3" stroke-linecap="round"/>
<line x1="98.8967" y1="166.339" x2="100.408" y2="167.85" stroke="black" stroke-width="3" stroke-linecap="round"/>
<line x1="101.976" y1="160.983" x2="101.976" y2="188.574" stroke="black" stroke-width="3" stroke-linecap="round"/>
<line x1="98.8967" y1="166.339" x2="100.408" y2="167.85" stroke="black" stroke-width="3" stroke-linecap="round"/>
<line x1="98.8967" y1="166.339" x2="100.408" y2="167.85" stroke="black" stroke-width="3" stroke-linecap="round"/>
<line x1="98.8967" y1="166.339" x2="100.408" y2="167.85" stroke="black" stroke-width="3" stroke-linecap="round"/>
<circle cx="62.4977" cy="161.775" r="13.2145" stroke="black" stroke-width="4" stroke-linecap="round"/>
<circle cx="62.4977" cy="161.775" r="13.2145" stroke="black" stroke-width="4" stroke-linecap="round"/>
<line x1="62.3506" y1="160.547" x2="62.3506" y2="188.137" stroke="black" stroke-width="3" stroke-linecap="round"/>
<line x1="59.2717" y1="165.902" x2="60.7827" y2="167.413" stroke="black" stroke-width="3" stroke-linecap="round"/>
<line x1="62.3506" y1="160.547" x2="62.3506" y2="188.137" stroke="black" stroke-width="3" stroke-linecap="round"/>
<line x1="59.2717" y1="165.902" x2="60.7827" y2="167.413" stroke="black" stroke-width="3" stroke-linecap="round"/>
<line x1="59.2717" y1="165.902" x2="60.7827" y2="167.413" stroke="black" stroke-width="3" stroke-linecap="round"/>
<line x1="59.2717" y1="165.902" x2="60.7827" y2="167.413" stroke="black" stroke-width="3" stroke-linecap="round"/>
<circle cx="141.746" cy="216.311" r="13.2145" stroke="black" stroke-width="4" stroke-linecap="round"/>
<circle cx="141.746" cy="216.311" r="13.2145" stroke="black" stroke-width="4" stroke-linecap="round"/>
<line x1="141.599" y1="215.083" x2="141.599" y2="242.674" stroke="black" stroke-width="3" stroke-linecap="round"/>
<line x1="138.52" y1="220.438" x2="140.031" y2="221.949" stroke="black" stroke-width="3" stroke-linecap="round"/>
<line x1="141.599" y1="215.083" x2="141.599" y2="242.674" stroke="black" stroke-width="3" stroke-linecap="round"/>
<line x1="138.52" y1="220.438" x2="140.031" y2="221.949" stroke="black" stroke-width="3" stroke-linecap="round"/>
<line x1="138.52" y1="220.438" x2="140.031" y2="221.949" stroke="black" stroke-width="3" stroke-linecap="round"/>
<line x1="138.52" y1="220.438" x2="140.031" y2="221.949" stroke="black" stroke-width="3" stroke-linecap="round"/>
<circle cx="181.371" cy="216.311" r="13.2145" stroke="black" stroke-width="4" stroke-linecap="round"/>
<circle cx="181.371" cy="216.311" r="13.2145" stroke="black" stroke-width="4" stroke-linecap="round"/>
<line x1="181.224" y1="215.083" x2="181.224" y2="242.674" stroke="black" stroke-width="3" stroke-linecap="round"/>
<line x1="178.145" y1="220.438" x2="179.656" y2="221.949" stroke="black" stroke-width="3" stroke-linecap="round"/>
<line x1="181.224" y1="215.083" x2="181.224" y2="242.674" stroke="black" stroke-width="3" stroke-linecap="round"/>
<line x1="178.145" y1="220.438" x2="179.656" y2="221.949" stroke="black" stroke-width="3" stroke-linecap="round"/>
<line x1="178.145" y1="220.438" x2="179.656" y2="221.949" stroke="black" stroke-width="3" stroke-linecap="round"/>
<line x1="178.145" y1="220.438" x2="179.656" y2="221.949" stroke="black" stroke-width="3" stroke-linecap="round"/>
<circle cx="220.994" cy="107.675" r="13.2145" stroke="#3C4BAB" stroke-width="4" stroke-linecap="round"/>
<circle cx="220.994" cy="107.675" r="13.2145" stroke="#3C4BAB" stroke-width="4" stroke-linecap="round"/>
<line x1="220.847" y1="106.447" x2="220.847" y2="134.038" stroke="#3C4BAB" stroke-width="3" stroke-linecap="round"/>
<line x1="217.768" y1="111.803" x2="219.279" y2="113.314" stroke="#3C4BAB" stroke-width="3" stroke-linecap="round"/>
<line x1="220.847" y1="106.447" x2="220.847" y2="134.038" stroke="#3C4BAB" stroke-width="3" stroke-linecap="round"/>
<line x1="217.768" y1="111.803" x2="219.279" y2="113.314" stroke="#3C4BAB" stroke-width="3" stroke-linecap="round"/>
<line x1="217.768" y1="111.803" x2="219.279" y2="113.314" stroke="#3C4BAB" stroke-width="3" stroke-linecap="round"/>
<line x1="217.768" y1="111.803" x2="219.279" y2="113.314" stroke="#3C4BAB" stroke-width="3" stroke-linecap="round"/>
<circle cx="220.994" cy="55.0123" r="13.2145" stroke="#3C4BAB" stroke-width="4" stroke-linecap="round"/>
<circle cx="220.994" cy="55.0123" r="13.2145" stroke="#3C4BAB" stroke-width="4" stroke-linecap="round"/>
<line x1="220.847" y1="53.7842" x2="220.847" y2="81.3748" stroke="#3C4BAB" stroke-width="3" stroke-linecap="round"/>
<line x1="217.768" y1="59.1396" x2="219.279" y2="60.6507" stroke="#3C4BAB" stroke-width="3" stroke-linecap="round"/>
<line x1="220.847" y1="53.7842" x2="220.847" y2="81.3748" stroke="#3C4BAB" stroke-width="3" stroke-linecap="round"/>
<line x1="217.768" y1="59.1396" x2="219.279" y2="60.6507" stroke="#3C4BAB" stroke-width="3" stroke-linecap="round"/>
<line x1="217.768" y1="59.1396" x2="219.279" y2="60.6507" stroke="#3C4BAB" stroke-width="3" stroke-linecap="round"/>
<line x1="217.768" y1="59.1396" x2="219.279" y2="60.6507" stroke="#3C4BAB" stroke-width="3" stroke-linecap="round"/>
<circle cx="220.994" cy="161.832" r="13.2145" stroke="#3C4BAB" stroke-width="4" stroke-linecap="round"/>
<circle cx="220.994" cy="161.832" r="13.2145" stroke="#3C4BAB" stroke-width="4" stroke-linecap="round"/>
<line x1="220.847" y1="160.604" x2="220.847" y2="188.194" stroke="#3C4BAB" stroke-width="3" stroke-linecap="round"/>
<line x1="217.768" y1="165.959" x2="219.279" y2="167.47" stroke="#3C4BAB" stroke-width="3" stroke-linecap="round"/>
<line x1="220.847" y1="160.604" x2="220.847" y2="188.194" stroke="#3C4BAB" stroke-width="3" stroke-linecap="round"/>
<line x1="217.768" y1="165.959" x2="219.279" y2="167.47" stroke="#3C4BAB" stroke-width="3" stroke-linecap="round"/>
<line x1="217.768" y1="165.959" x2="219.279" y2="167.47" stroke="#3C4BAB" stroke-width="3" stroke-linecap="round"/>
<line x1="217.768" y1="165.959" x2="219.279" y2="167.47" stroke="#3C4BAB" stroke-width="3" stroke-linecap="round"/>
<circle cx="220.994" cy="216.311" r="13.2145" stroke="#3C4BAB" stroke-width="4" stroke-linecap="round"/>
<circle cx="220.994" cy="216.311" r="13.2145" stroke="#3C4BAB" stroke-width="4" stroke-linecap="round"/>
<line x1="220.847" y1="215.083" x2="220.847" y2="242.674" stroke="#3C4BAB" stroke-width="3" stroke-linecap="round"/>
<line x1="217.768" y1="220.438" x2="219.279" y2="221.949" stroke="#3C4BAB" stroke-width="3" stroke-linecap="round"/>
<line x1="220.847" y1="215.083" x2="220.847" y2="242.674" stroke="#3C4BAB" stroke-width="3" stroke-linecap="round"/>
<line x1="217.768" y1="220.438" x2="219.279" y2="221.949" stroke="#3C4BAB" stroke-width="3" stroke-linecap="round"/>
<line x1="217.768" y1="220.438" x2="219.279" y2="221.949" stroke="#3C4BAB" stroke-width="3" stroke-linecap="round"/>
<line x1="217.768" y1="220.438" x2="219.279" y2="221.949" stroke="#3C4BAB" stroke-width="3" stroke-linecap="round"/>
<circle cx="102.123" cy="216.748" r="13.2145" stroke="black" stroke-width="4" stroke-linecap="round"/>
<circle cx="102.123" cy="216.748" r="13.2145" stroke="black" stroke-width="4" stroke-linecap="round"/>
<line x1="101.976" y1="215.52" x2="101.976" y2="243.11" stroke="black" stroke-width="3" stroke-linecap="round"/>
<line x1="98.8967" y1="220.875" x2="100.408" y2="222.386" stroke="black" stroke-width="3" stroke-linecap="round"/>
<line x1="101.976" y1="215.52" x2="101.976" y2="243.11" stroke="black" stroke-width="3" stroke-linecap="round"/>
<line x1="98.8967" y1="220.875" x2="100.408" y2="222.386" stroke="black" stroke-width="3" stroke-linecap="round"/>
<line x1="98.8967" y1="220.875" x2="100.408" y2="222.386" stroke="black" stroke-width="3" stroke-linecap="round"/>
<line x1="98.8967" y1="220.875" x2="100.408" y2="222.386" stroke="black" stroke-width="3" stroke-linecap="round"/>
<circle cx="62.4977" cy="216.311" r="13.2145" stroke="black" stroke-width="4" stroke-linecap="round"/>
<circle cx="62.4977" cy="216.311" r="13.2145" stroke="black" stroke-width="4" stroke-linecap="round"/>
<line x1="62.3506" y1="215.083" x2="62.3506" y2="242.674" stroke="black" stroke-width="3" stroke-linecap="round"/>
<line x1="59.2717" y1="220.438" x2="60.7827" y2="221.949" stroke="black" stroke-width="3" stroke-linecap="round"/>
<line x1="62.3506" y1="215.083" x2="62.3506" y2="242.674" stroke="black" stroke-width="3" stroke-linecap="round"/>
<line x1="59.2717" y1="220.438" x2="60.7827" y2="221.949" stroke="black" stroke-width="3" stroke-linecap="round"/>
<line x1="59.2717" y1="220.438" x2="60.7827" y2="221.949" stroke="black" stroke-width="3" stroke-linecap="round"/>
<line x1="59.2717" y1="220.438" x2="60.7827" y2="221.949" stroke="black" stroke-width="3" stroke-linecap="round"/>
<circle cx="60.8512" cy="52.1393" r="13.2145" stroke="black" stroke-width="4" stroke-linecap="round"/>
<circle cx="60.8512" cy="52.1393" r="13.2145" stroke="black" stroke-width="4" stroke-linecap="round"/>
<line x1="60.7041" y1="50.9111" x2="60.7041" y2="78.5018" stroke="black" stroke-width="3" stroke-linecap="round"/>
<line x1="57.6252" y1="56.2666" x2="59.1362" y2="57.7776" stroke="black" stroke-width="3" stroke-linecap="round"/>
<line x1="60.7041" y1="50.9111" x2="60.7041" y2="78.5018" stroke="black" stroke-width="3" stroke-linecap="round"/>
<line x1="57.6252" y1="56.2666" x2="59.1362" y2="57.7776" stroke="black" stroke-width="3" stroke-linecap="round"/>
<line x1="57.6252" y1="56.2666" x2="59.1362" y2="57.7776" stroke="black" stroke-width="3" stroke-linecap="round"/>
<line x1="57.6252" y1="56.2666" x2="59.1362" y2="57.7776" stroke="black" stroke-width="3" stroke-linecap="round"/>
</svg>
